# xmcd
#
# Track frame offsets: 
#        182
#        13670
#        52382
#
# Disc length: 1064 seconds
#
# Revision: 0
# Processed by: cddbd v1.5.2PL0 Copyright (c) Steve Scherf et al.
# Submitted via: ExactAudioCopy v0.99pb4
#
DISCID=24042603
DTITLE=Daddy's Favourite - I Feel Good Things For You
DYEAR=1998
DGENRE=House
TTITLE0=I Feel Good Things For You (Radio Edit)
TTITLE1=I Feel Good Things For You (Original Mix)
TTITLE2=I Feel Good Things For You (Alan Braxe Mix One)
EXTD=
EXTT0=
EXTT1=
EXTT2=
PLAYORDER=
